<svg width="242" height="68" viewBox="0 0 242 68" fill="none" xmlns="http://www.w3.org/2000/svg">
<path d="M25.19 16.6C19.9093 16.5299 14.7349 18.0871 10.37 21.06L10.54 0H0V40.21C0 40.75 0 41.3 0 41.86C0 56.39 10.67 67.15 25.24 67.15C39.81 67.15 50.47 56.46 50.47 41.86C50.47 27.26 39.68 16.6 25.19 16.6ZM25.19 57.54C16.95 57.54 10.76 51.18 10.76 41.89C10.76 32.6 16.95 26.24 25.19 26.24C33.43 26.24 39.62 32.6 39.62 41.86C39.62 51.12 33.42 57.51 25.19 57.51V57.54Z" fill="#00AEEF"/>
<path d="M54.6992 41.8603C54.6992 27.3303 65.3792 16.5703 79.9392 16.5703C94.4992 16.5703 105.169 27.2603 105.169 41.8603C105.169 56.4603 94.4292 67.1503 79.9392 67.1503C65.4492 67.1503 54.6992 56.3903 54.6992 41.8603ZM94.3692 41.8603C94.3692 32.5703 88.1692 26.2103 79.9392 26.2103C71.7092 26.2103 65.5092 32.6003 65.5092 41.8603C65.5092 51.1203 71.6992 57.5103 79.9392 57.5103C88.1792 57.5103 94.3692 51.1503 94.3692 41.8603Z" fill="#00AEEF"/>
<path d="M110.061 41.8596C110.061 27.3296 120.701 16.5996 135.261 16.5996C149.821 16.5996 160.501 27.2896 160.501 41.8896C160.501 56.4896 149.761 67.1496 135.261 67.1496C120.761 67.1496 110.061 56.3896 110.061 41.8596ZM149.731 41.8596C149.731 32.5696 143.541 26.2096 135.301 26.2096C127.061 26.2096 120.831 32.5996 120.831 41.8596C120.831 51.1196 127.061 57.5096 135.261 57.5096C143.461 57.5096 149.691 51.1496 149.691 41.8596H149.731Z" fill="#00AEEF"/>
<path d="M220.751 18.0303C213.671 18.0303 207.011 21.0303 203.351 25.8003C199.691 20.9903 193.031 18.0303 185.951 18.0303C175.071 18.0303 165.471 24.5503 165.471 38.9503V66.3103H176.061V42.6603C176.061 34.1603 179.771 29.2003 186.181 29.2003C193.091 29.2003 197.901 33.2003 197.901 42.6603V66.3103H208.901V42.6603C208.901 33.1803 213.701 29.2003 220.621 29.2003C227.031 29.2003 230.741 34.2003 230.741 42.6603V66.3103H241.281V38.9503C241.231 24.6003 231.621 18.0303 220.751 18.0303Z" fill="#00AEEF"/>
</svg>
