<svg width="258" height="46" viewBox="0 0 258 46" fill="none" xmlns="http://www.w3.org/2000/svg">
<path d="M16.7931 11.0665C13.2727 11.0198 9.82316 12.0579 6.91324 14.0398L7.02657 0H0V26.8063C0 27.1663 0 27.533 0 27.9063C0 37.5928 7.11324 44.7661 16.8264 44.7661C26.5396 44.7661 33.6462 37.6395 33.6462 27.9063C33.6462 18.1731 26.453 11.0665 16.7931 11.0665ZM16.7931 38.3595C11.2998 38.3595 7.17323 34.1195 7.17323 27.9263C7.17323 21.733 11.2998 17.4931 16.7931 17.4931C22.2864 17.4931 26.413 21.733 26.413 27.9063C26.413 34.0795 22.2797 38.3395 16.7931 38.3395V38.3595Z" fill="#00AEEF"/>
<path d="M36.4662 27.9063C36.4662 18.2197 43.5861 11.0465 53.2927 11.0465C62.9992 11.0465 70.1124 18.1731 70.1124 27.9063C70.1124 37.6395 62.9525 44.7661 53.2927 44.7661C43.6328 44.7661 36.4662 37.5928 36.4662 27.9063ZM62.9125 27.9063C62.9125 21.713 58.7793 17.4731 53.2927 17.4731C47.8061 17.4731 43.6728 21.733 43.6728 27.9063C43.6728 34.0795 47.7994 38.3395 53.2927 38.3395C58.7859 38.3395 62.9125 34.0995 62.9125 27.9063Z" fill="#00AEEF"/>
<path d="M73.3724 27.9063C73.3724 18.2197 80.4656 11.0665 90.1722 11.0665C99.8787 11.0665 106.999 18.1931 106.999 27.9263C106.999 37.6595 99.8387 44.7661 90.1722 44.7661C80.5056 44.7661 73.3724 37.5928 73.3724 27.9063ZM99.8187 27.9063C99.8187 21.713 95.6921 17.4731 90.1988 17.4731C84.7056 17.4731 80.5523 21.733 80.5523 27.9063C80.5523 34.0795 84.7056 38.3395 90.1722 38.3395C95.6387 38.3395 99.792 34.0995 99.792 27.9063H99.8187Z" fill="#00AEEF"/>
<path d="M147.165 12.0198C142.445 12.0198 138.005 14.0198 135.565 17.1998C133.125 13.9931 128.685 12.0198 123.965 12.0198C116.712 12.0198 110.312 16.3664 110.312 25.9663V44.2061H117.372V28.4396C117.372 22.773 119.845 19.4664 124.118 19.4664C128.725 19.4664 131.932 22.133 131.932 28.4396V44.2061H139.265V28.4396C139.265 22.1197 142.465 19.4664 147.078 19.4664C151.351 19.4664 153.825 22.7997 153.825 28.4396V44.2061H160.851V25.9663C160.818 16.3998 154.411 12.0198 147.165 12.0198Z" fill="#00AEEF"/>
<path d="M175.72 14.61C176.507 14.85 176.9 15.3667 176.9 16.16C176.9 16.72 176.7 17.1667 176.3 17.5C175.907 17.8333 175.347 18 174.62 18H171.96V11H174.27C175.03 11 175.613 11.18 176.02 11.54C176.433 11.8933 176.64 12.3867 176.64 13.02C176.64 13.7667 176.333 14.2867 175.72 14.58V14.61ZM174.33 11.8H172.88V14.28H174.33C175.257 14.28 175.72 13.87 175.72 13.05C175.72 12.2167 175.257 11.8 174.33 11.8ZM174.58 17.2C175.5 17.2 175.96 16.8433 175.96 16.13C175.96 15.4167 175.5 15.06 174.58 15.06H172.88V17.2H174.58ZM181.875 13.3H182.665V18H181.875L181.815 17.37H181.785C181.645 17.59 181.432 17.77 181.145 17.91C180.858 18.05 180.542 18.12 180.195 18.12C179.555 18.12 179.018 17.89 178.585 17.43C178.158 16.9633 177.945 16.37 177.945 15.65C177.945 14.93 178.158 14.34 178.585 13.88C179.018 13.4133 179.555 13.18 180.195 13.18C180.542 13.18 180.858 13.25 181.145 13.39C181.432 13.53 181.645 13.71 181.785 13.93H181.815L181.875 13.3ZM181.785 16.03V15.27C181.785 14.8967 181.645 14.5833 181.365 14.33C181.092 14.07 180.748 13.94 180.335 13.94C179.895 13.94 179.535 14.0967 179.255 14.41C178.982 14.7167 178.845 15.13 178.845 15.65C178.845 16.17 178.982 16.5867 179.255 16.9C179.535 17.2067 179.895 17.36 180.335 17.36C180.748 17.36 181.092 17.2333 181.365 16.98C181.645 16.72 181.785 16.4033 181.785 16.03ZM184.221 18V11H185.101V18H184.221ZM190.843 18H189.693L187.573 15.77H187.543V18H186.663V11H187.543V15.31H187.563L189.653 13.3H190.783L188.473 15.52L190.843 18ZM195.127 13.3H195.917V18H195.127L195.067 17.37H195.037C194.897 17.59 194.684 17.77 194.397 17.91C194.11 18.05 193.794 18.12 193.447 18.12C192.807 18.12 192.27 17.89 191.837 17.43C191.41 16.9633 191.197 16.37 191.197 15.65C191.197 14.93 191.41 14.34 191.837 13.88C192.27 13.4133 192.807 13.18 193.447 13.18C193.794 13.18 194.11 13.25 194.397 13.39C194.684 13.53 194.897 13.71 195.037 13.93H195.067L195.127 13.3ZM195.037 16.03V15.27C195.037 14.8967 194.897 14.5833 194.617 14.33C194.344 14.07 194 13.94 193.587 13.94C193.147 13.94 192.787 14.0967 192.507 14.41C192.234 14.7167 192.097 15.13 192.097 15.65C192.097 16.17 192.234 16.5867 192.507 16.9C192.787 17.2067 193.147 17.36 193.587 17.36C194 17.36 194.344 17.2333 194.617 16.98C194.897 16.72 195.037 16.4033 195.037 16.03ZM199.883 13.18C200.403 13.18 200.817 13.3433 201.123 13.67C201.43 13.9967 201.583 14.45 201.583 15.03V18H200.703V15.37C200.703 14.8633 200.613 14.5033 200.433 14.29C200.26 14.07 199.997 13.96 199.643 13.96C199.243 13.96 198.927 14.0867 198.693 14.34C198.467 14.5867 198.353 14.9533 198.353 15.44V18H197.473V13.3H198.263L198.323 13.93H198.353C198.673 13.43 199.183 13.18 199.883 13.18ZM211.181 17.1C210.527 17.78 209.704 18.12 208.711 18.12C207.717 18.12 206.894 17.78 206.241 17.1C205.587 16.42 205.261 15.5533 205.261 14.5C205.261 13.4467 205.587 12.58 206.241 11.9C206.894 11.22 207.717 10.88 208.711 10.88C209.704 10.88 210.527 11.22 211.181 11.9C211.834 12.58 212.161 13.4467 212.161 14.5C212.161 15.5533 211.834 16.42 211.181 17.1ZM206.901 16.52C207.374 17.0267 207.977 17.28 208.711 17.28C209.444 17.28 210.044 17.0267 210.511 16.52C210.984 16.0133 211.221 15.34 211.221 14.5C211.221 13.66 210.984 12.9867 210.511 12.48C210.044 11.9733 209.444 11.72 208.711 11.72C207.977 11.72 207.374 11.9733 206.901 12.48C206.434 12.9867 206.201 13.66 206.201 14.5C206.201 15.34 206.434 16.0133 206.901 16.52ZM215.109 18.12C214.595 18.12 214.162 18.0033 213.809 17.77C213.462 17.53 213.249 17.2033 213.169 16.79L213.969 16.6C214.135 17.14 214.515 17.41 215.109 17.41C215.409 17.41 215.649 17.3433 215.829 17.21C216.015 17.0767 216.109 16.9033 216.109 16.69C216.109 16.5167 216.035 16.3767 215.889 16.27C215.749 16.1633 215.505 16.0767 215.159 16.01L214.589 15.9C213.675 15.72 213.219 15.2933 213.219 14.62C213.219 14.2 213.385 13.8567 213.719 13.59C214.052 13.3167 214.495 13.18 215.049 13.18C215.535 13.18 215.939 13.29 216.259 13.51C216.579 13.7233 216.779 14.0233 216.859 14.41L216.049 14.6C215.902 14.1267 215.555 13.89 215.009 13.89C214.715 13.89 214.485 13.9533 214.319 14.08C214.152 14.2 214.069 14.3633 214.069 14.57C214.069 14.7233 214.132 14.8467 214.259 14.94C214.392 15.0333 214.642 15.1167 215.009 15.19L215.579 15.3C216.052 15.3867 216.399 15.54 216.619 15.76C216.845 15.9733 216.959 16.26 216.959 16.62C216.959 17.0667 216.792 17.43 216.459 17.71C216.132 17.9833 215.682 18.12 215.109 18.12ZM219.728 18.12C219.214 18.12 218.781 18.0033 218.428 17.77C218.081 17.53 217.868 17.2033 217.788 16.79L218.588 16.6C218.754 17.14 219.134 17.41 219.728 17.41C220.028 17.41 220.268 17.3433 220.448 17.21C220.634 17.0767 220.728 16.9033 220.728 16.69C220.728 16.5167 220.654 16.3767 220.508 16.27C220.368 16.1633 220.124 16.0767 219.778 16.01L219.208 15.9C218.294 15.72 217.838 15.2933 217.838 14.62C217.838 14.2 218.004 13.8567 218.338 13.59C218.671 13.3167 219.114 13.18 219.668 13.18C220.154 13.18 220.558 13.29 220.878 13.51C221.198 13.7233 221.398 14.0233 221.478 14.41L220.668 14.6C220.521 14.1267 220.174 13.89 219.628 13.89C219.334 13.89 219.104 13.9533 218.938 14.08C218.771 14.2 218.688 14.3633 218.688 14.57C218.688 14.7233 218.751 14.8467 218.878 14.94C219.011 15.0333 219.261 15.1167 219.628 15.19L220.198 15.3C220.671 15.3867 221.018 15.54 221.238 15.76C221.464 15.9733 221.578 16.26 221.578 16.62C221.578 17.0667 221.411 17.43 221.078 17.71C220.751 17.9833 220.301 18.12 219.728 18.12ZM224.806 17.37C224.973 17.37 225.123 17.3567 225.256 17.33V18.05C225.083 18.0967 224.873 18.12 224.626 18.12C224.073 18.12 223.663 17.9833 223.396 17.71C223.136 17.4367 223.006 16.9867 223.006 16.36V14.05H222.146V13.3H223.006V12.11H223.886V13.3H225.216V14.05H223.886V16.36C223.886 16.7467 223.953 17.0133 224.086 17.16C224.226 17.3 224.466 17.37 224.806 17.37ZM230.593 15.48C230.593 15.6 230.583 15.7267 230.563 15.86H226.843C226.876 16.34 227.03 16.71 227.303 16.97C227.583 17.23 227.936 17.36 228.363 17.36C228.97 17.36 229.413 17.1 229.693 16.58L230.473 16.81C230.32 17.21 230.05 17.53 229.663 17.77C229.283 18.0033 228.843 18.12 228.343 18.12C227.643 18.12 227.066 17.8933 226.613 17.44C226.166 16.9867 225.943 16.4 225.943 15.68C225.943 14.9467 226.173 14.3467 226.633 13.88C227.093 13.4133 227.67 13.18 228.363 13.18C229.016 13.18 229.55 13.3933 229.963 13.82C230.383 14.24 230.593 14.7933 230.593 15.48ZM228.363 13.91C227.983 13.91 227.66 14.02 227.393 14.24C227.133 14.46 226.963 14.77 226.883 15.17H229.703C229.65 14.7567 229.503 14.4433 229.263 14.23C229.03 14.0167 228.73 13.91 228.363 13.91ZM237.268 13.18C237.762 13.18 238.158 13.3433 238.458 13.67C238.758 13.9967 238.908 14.45 238.908 15.03V18H238.028V15.33C238.028 14.4167 237.698 13.96 237.038 13.96C236.672 13.96 236.375 14.09 236.148 14.35C235.928 14.6033 235.818 14.96 235.818 15.42V18H234.938V15.33C234.938 14.4167 234.612 13.96 233.958 13.96C233.592 13.96 233.295 14.0867 233.068 14.34C232.842 14.5933 232.728 14.9533 232.728 15.42V18H231.848V13.3H232.638L232.698 13.93H232.728C232.875 13.6967 233.082 13.5133 233.348 13.38C233.615 13.2467 233.898 13.18 234.198 13.18C234.878 13.18 235.348 13.4733 235.608 14.06H235.638C235.798 13.7933 236.022 13.58 236.308 13.42C236.602 13.26 236.922 13.18 237.268 13.18Z" fill="#00AEEF"/>
<path d="M175.63 29.43C175.177 29.89 174.6 30.12 173.9 30.12C173.2 30.12 172.62 29.89 172.16 29.43C171.707 28.9633 171.48 28.37 171.48 27.65C171.48 26.93 171.707 26.34 172.16 25.88C172.62 25.4133 173.2 25.18 173.9 25.18C174.6 25.18 175.177 25.4133 175.63 25.88C176.09 26.34 176.32 26.93 176.32 27.65C176.32 28.37 176.09 28.9633 175.63 29.43ZM172.8 28.89C173.087 29.2033 173.453 29.36 173.9 29.36C174.347 29.36 174.71 29.2033 174.99 28.89C175.277 28.5767 175.42 28.1633 175.42 27.65C175.42 27.1367 175.277 26.7233 174.99 26.41C174.71 26.0967 174.347 25.94 173.9 25.94C173.453 25.94 173.087 26.0967 172.8 26.41C172.52 26.7233 172.38 27.1367 172.38 27.65C172.38 28.1633 172.52 28.5767 172.8 28.89ZM179.181 30.12C178.668 30.12 178.234 30.0033 177.881 29.77C177.534 29.53 177.321 29.2033 177.241 28.79L178.041 28.6C178.208 29.14 178.588 29.41 179.181 29.41C179.481 29.41 179.721 29.3433 179.901 29.21C180.088 29.0767 180.181 28.9033 180.181 28.69C180.181 28.5167 180.108 28.3767 179.961 28.27C179.821 28.1633 179.578 28.0767 179.231 28.01L178.661 27.9C177.748 27.72 177.291 27.2933 177.291 26.62C177.291 26.2 177.458 25.8567 177.791 25.59C178.124 25.3167 178.568 25.18 179.121 25.18C179.608 25.18 180.011 25.29 180.331 25.51C180.651 25.7233 180.851 26.0233 180.931 26.41L180.121 26.6C179.974 26.1267 179.628 25.89 179.081 25.89C178.788 25.89 178.558 25.9533 178.391 26.08C178.224 26.2 178.141 26.3633 178.141 26.57C178.141 26.7233 178.204 26.8467 178.331 26.94C178.464 27.0333 178.714 27.1167 179.081 27.19L179.651 27.3C180.124 27.3867 180.471 27.54 180.691 27.76C180.918 27.9733 181.031 28.26 181.031 28.62C181.031 29.0667 180.864 29.43 180.531 29.71C180.204 29.9833 179.754 30.12 179.181 30.12ZM183.8 30.12C183.287 30.12 182.853 30.0033 182.5 29.77C182.153 29.53 181.94 29.2033 181.86 28.79L182.66 28.6C182.827 29.14 183.207 29.41 183.8 29.41C184.1 29.41 184.34 29.3433 184.52 29.21C184.707 29.0767 184.8 28.9033 184.8 28.69C184.8 28.5167 184.727 28.3767 184.58 28.27C184.44 28.1633 184.197 28.0767 183.85 28.01L183.28 27.9C182.367 27.72 181.91 27.2933 181.91 26.62C181.91 26.2 182.077 25.8567 182.41 25.59C182.743 25.3167 183.187 25.18 183.74 25.18C184.227 25.18 184.63 25.29 184.95 25.51C185.27 25.7233 185.47 26.0233 185.55 26.41L184.74 26.6C184.593 26.1267 184.247 25.89 183.7 25.89C183.407 25.89 183.177 25.9533 183.01 26.08C182.843 26.2 182.76 26.3633 182.76 26.57C182.76 26.7233 182.823 26.8467 182.95 26.94C183.083 27.0333 183.333 27.1167 183.7 27.19L184.27 27.3C184.743 27.3867 185.09 27.54 185.31 27.76C185.537 27.9733 185.65 28.26 185.65 28.62C185.65 29.0667 185.483 29.43 185.15 29.71C184.823 29.9833 184.373 30.12 183.8 30.12ZM191.169 27.48C191.169 27.6 191.159 27.7267 191.139 27.86H187.419C187.452 28.34 187.606 28.71 187.879 28.97C188.159 29.23 188.512 29.36 188.939 29.36C189.546 29.36 189.989 29.1 190.269 28.58L191.049 28.81C190.896 29.21 190.626 29.53 190.239 29.77C189.859 30.0033 189.419 30.12 188.919 30.12C188.219 30.12 187.642 29.8933 187.189 29.44C186.742 28.9867 186.519 28.4 186.519 27.68C186.519 26.9467 186.749 26.3467 187.209 25.88C187.669 25.4133 188.246 25.18 188.939 25.18C189.592 25.18 190.126 25.3933 190.539 25.82C190.959 26.24 191.169 26.7933 191.169 27.48ZM188.939 25.91C188.559 25.91 188.236 26.02 187.969 26.24C187.709 26.46 187.539 26.77 187.459 27.17H190.279C190.226 26.7567 190.079 26.4433 189.839 26.23C189.606 26.0167 189.306 25.91 188.939 25.91ZM196.275 29.43C195.821 29.89 195.245 30.12 194.545 30.12C193.845 30.12 193.265 29.89 192.805 29.43C192.351 28.9633 192.125 28.37 192.125 27.65C192.125 26.93 192.351 26.34 192.805 25.88C193.265 25.4133 193.845 25.18 194.545 25.18C195.245 25.18 195.821 25.4133 196.275 25.88C196.735 26.34 196.965 26.93 196.965 27.65C196.965 28.37 196.735 28.9633 196.275 29.43ZM193.445 28.89C193.731 29.2033 194.098 29.36 194.545 29.36C194.991 29.36 195.355 29.2033 195.635 28.89C195.921 28.5767 196.065 28.1633 196.065 27.65C196.065 27.1367 195.921 26.7233 195.635 26.41C195.355 26.0967 194.991 25.94 194.545 25.94C194.098 25.94 193.731 26.0967 193.445 26.41C193.165 26.7233 193.025 27.1367 193.025 27.65C193.025 28.1633 193.165 28.5767 193.445 28.89ZM199.085 24.29C198.972 24.4033 198.832 24.46 198.665 24.46C198.499 24.46 198.355 24.4033 198.235 24.29C198.122 24.17 198.065 24.0267 198.065 23.86C198.065 23.6933 198.122 23.5533 198.235 23.44C198.355 23.32 198.499 23.26 198.665 23.26C198.832 23.26 198.972 23.32 199.085 23.44C199.205 23.5533 199.265 23.6933 199.265 23.86C199.265 24.0267 199.205 24.17 199.085 24.29ZM198.225 30V25.3H199.105V30H198.225ZM203.077 25.18C203.597 25.18 204.01 25.3433 204.317 25.67C204.623 25.9967 204.777 26.45 204.777 27.03V30H203.897V27.37C203.897 26.8633 203.807 26.5033 203.627 26.29C203.453 26.07 203.19 25.96 202.837 25.96C202.437 25.96 202.12 26.0867 201.887 26.34C201.66 26.5867 201.547 26.9533 201.547 27.44V30H200.667V25.3H201.457L201.517 25.93H201.547C201.867 25.43 202.377 25.18 203.077 25.18ZM208.263 29.37C208.43 29.37 208.58 29.3567 208.713 29.33V30.05C208.54 30.0967 208.33 30.12 208.083 30.12C207.53 30.12 207.12 29.9833 206.853 29.71C206.593 29.4367 206.463 28.9867 206.463 28.36V26.05H205.603V25.3H206.463V24.11H207.343V25.3H208.673V26.05H207.343V28.36C207.343 28.7467 207.41 29.0133 207.543 29.16C207.683 29.3 207.923 29.37 208.263 29.37ZM214.05 27.48C214.05 27.6 214.04 27.7267 214.02 27.86H210.3C210.333 28.34 210.487 28.71 210.76 28.97C211.04 29.23 211.393 29.36 211.82 29.36C212.427 29.36 212.87 29.1 213.15 28.58L213.93 28.81C213.777 29.21 213.507 29.53 213.12 29.77C212.74 30.0033 212.3 30.12 211.8 30.12C211.1 30.12 210.523 29.8933 210.07 29.44C209.623 28.9867 209.4 28.4 209.4 27.68C209.4 26.9467 209.63 26.3467 210.09 25.88C210.55 25.4133 211.127 25.18 211.82 25.18C212.473 25.18 213.007 25.3933 213.42 25.82C213.84 26.24 214.05 26.7933 214.05 27.48ZM211.82 25.91C211.44 25.91 211.117 26.02 210.85 26.24C210.59 26.46 210.42 26.77 210.34 27.17H213.16C213.107 26.7567 212.96 26.4433 212.72 26.23C212.487 26.0167 212.187 25.91 211.82 25.91ZM218.955 25.3H219.745V30.02C219.745 30.7467 219.529 31.3167 219.095 31.73C218.669 32.15 218.092 32.36 217.365 32.36C216.779 32.36 216.279 32.2233 215.865 31.95C215.459 31.6767 215.202 31.3033 215.095 30.83L215.915 30.61C216.015 30.9167 216.192 31.16 216.445 31.34C216.699 31.52 217.009 31.61 217.375 31.61C217.842 31.61 218.212 31.47 218.485 31.19C218.759 30.9167 218.895 30.54 218.895 30.06V29.31H218.865C218.732 29.53 218.519 29.71 218.225 29.85C217.932 29.9833 217.612 30.05 217.265 30.05C216.625 30.05 216.092 29.8233 215.665 29.37C215.239 28.91 215.025 28.3267 215.025 27.62C215.025 26.9133 215.239 26.33 215.665 25.87C216.099 25.41 216.632 25.18 217.265 25.18C217.612 25.18 217.932 25.25 218.225 25.39C218.519 25.53 218.732 25.71 218.865 25.93H218.895L218.955 25.3ZM218.865 27.97V27.27C218.865 26.9033 218.725 26.59 218.445 26.33C218.172 26.07 217.829 25.94 217.415 25.94C216.975 25.94 216.615 26.0933 216.335 26.4C216.062 26.7067 215.925 27.1133 215.925 27.62C215.925 28.1267 216.062 28.5333 216.335 28.84C216.615 29.1467 216.975 29.3 217.415 29.3C217.829 29.3 218.172 29.17 218.445 28.91C218.725 28.65 218.865 28.3367 218.865 27.97ZM223.482 25.21C223.655 25.21 223.812 25.2367 223.952 25.29V26.05C223.812 26.03 223.675 26.02 223.542 26.02C222.635 26.02 222.182 26.5267 222.182 27.54V30H221.302V25.3H222.082L222.152 26.02H222.182C222.288 25.7733 222.458 25.5767 222.692 25.43C222.925 25.2833 223.188 25.21 223.482 25.21ZM228.408 25.3H229.198V30H228.408L228.348 29.37H228.318C228.178 29.59 227.965 29.77 227.678 29.91C227.391 30.05 227.075 30.12 226.728 30.12C226.088 30.12 225.551 29.89 225.118 29.43C224.691 28.9633 224.478 28.37 224.478 27.65C224.478 26.93 224.691 26.34 225.118 25.88C225.551 25.4133 226.088 25.18 226.728 25.18C227.075 25.18 227.391 25.25 227.678 25.39C227.965 25.53 228.178 25.71 228.318 25.93H228.348L228.408 25.3ZM228.318 28.03V27.27C228.318 26.8967 228.178 26.5833 227.898 26.33C227.625 26.07 227.281 25.94 226.868 25.94C226.428 25.94 226.068 26.0967 225.788 26.41C225.515 26.7167 225.378 27.13 225.378 27.65C225.378 28.17 225.515 28.5867 225.788 28.9C226.068 29.2067 226.428 29.36 226.868 29.36C227.281 29.36 227.625 29.2333 227.898 28.98C228.178 28.72 228.318 28.4033 228.318 28.03ZM232.795 29.37C232.961 29.37 233.111 29.3567 233.245 29.33V30.05C233.071 30.0967 232.861 30.12 232.615 30.12C232.061 30.12 231.651 29.9833 231.385 29.71C231.125 29.4367 230.995 28.9867 230.995 28.36V26.05H230.135V25.3H230.995V24.11H231.875V25.3H233.205V26.05H231.875V28.36C231.875 28.7467 231.941 29.0133 232.075 29.16C232.215 29.3 232.455 29.37 232.795 29.37ZM235.228 24.29C235.115 24.4033 234.975 24.46 234.808 24.46C234.641 24.46 234.498 24.4033 234.378 24.29C234.265 24.17 234.208 24.0267 234.208 23.86C234.208 23.6933 234.265 23.5533 234.378 23.44C234.498 23.32 234.641 23.26 234.808 23.26C234.975 23.26 235.115 23.32 235.228 23.44C235.348 23.5533 235.408 23.6933 235.408 23.86C235.408 24.0267 235.348 24.17 235.228 24.29ZM234.368 30V25.3H235.248V30H234.368ZM240.659 29.43C240.206 29.89 239.629 30.12 238.929 30.12C238.229 30.12 237.649 29.89 237.189 29.43C236.736 28.9633 236.509 28.37 236.509 27.65C236.509 26.93 236.736 26.34 237.189 25.88C237.649 25.4133 238.229 25.18 238.929 25.18C239.629 25.18 240.206 25.4133 240.659 25.88C241.119 26.34 241.349 26.93 241.349 27.65C241.349 28.37 241.119 28.9633 240.659 29.43ZM237.829 28.89C238.116 29.2033 238.483 29.36 238.929 29.36C239.376 29.36 239.739 29.2033 240.019 28.89C240.306 28.5767 240.449 28.1633 240.449 27.65C240.449 27.1367 240.306 26.7233 240.019 26.41C239.739 26.0967 239.376 25.94 238.929 25.94C238.483 25.94 238.116 26.0967 237.829 26.41C237.549 26.7233 237.409 27.1367 237.409 27.65C237.409 28.1633 237.549 28.5767 237.829 28.89ZM245.02 25.18C245.54 25.18 245.954 25.3433 246.26 25.67C246.567 25.9967 246.72 26.45 246.72 27.03V30H245.84V27.37C245.84 26.8633 245.75 26.5033 245.57 26.29C245.397 26.07 245.134 25.96 244.78 25.96C244.38 25.96 244.064 26.0867 243.83 26.34C243.604 26.5867 243.49 26.9533 243.49 27.44V30H242.61V25.3H243.4L243.46 25.93H243.49C243.81 25.43 244.32 25.18 245.02 25.18Z" fill="#00AEEF"/>
<path d="M177.2 37.18C177.693 37.18 178.09 37.3433 178.39 37.67C178.69 37.9967 178.84 38.45 178.84 39.03V42H177.96V39.33C177.96 38.4167 177.63 37.96 176.97 37.96C176.603 37.96 176.307 38.09 176.08 38.35C175.86 38.6033 175.75 38.96 175.75 39.42V42H174.87V39.33C174.87 38.4167 174.543 37.96 173.89 37.96C173.523 37.96 173.227 38.0867 173 38.34C172.773 38.5933 172.66 38.9533 172.66 39.42V42H171.78V37.3H172.57L172.63 37.93H172.66C172.807 37.6967 173.013 37.5133 173.28 37.38C173.547 37.2467 173.83 37.18 174.13 37.18C174.81 37.18 175.28 37.4733 175.54 38.06H175.57C175.73 37.7933 175.953 37.58 176.24 37.42C176.533 37.26 176.853 37.18 177.2 37.18ZM184.714 39.48C184.714 39.6 184.704 39.7267 184.684 39.86H180.964C180.997 40.34 181.151 40.71 181.424 40.97C181.704 41.23 182.057 41.36 182.484 41.36C183.091 41.36 183.534 41.1 183.814 40.58L184.594 40.81C184.441 41.21 184.171 41.53 183.784 41.77C183.404 42.0033 182.964 42.12 182.464 42.12C181.764 42.12 181.187 41.8933 180.734 41.44C180.287 40.9867 180.064 40.4 180.064 39.68C180.064 38.9467 180.294 38.3467 180.754 37.88C181.214 37.4133 181.791 37.18 182.484 37.18C183.137 37.18 183.671 37.3933 184.084 37.82C184.504 38.24 184.714 38.7933 184.714 39.48ZM182.484 37.91C182.104 37.91 181.781 38.02 181.514 38.24C181.254 38.46 181.084 38.77 181.004 39.17H183.824C183.771 38.7567 183.624 38.4433 183.384 38.23C183.151 38.0167 182.851 37.91 182.484 37.91ZM190.32 39.48C190.32 39.6 190.31 39.7267 190.29 39.86H186.57C186.603 40.34 186.756 40.71 187.03 40.97C187.31 41.23 187.663 41.36 188.09 41.36C188.696 41.36 189.14 41.1 189.42 40.58L190.2 40.81C190.046 41.21 189.776 41.53 189.39 41.77C189.01 42.0033 188.57 42.12 188.07 42.12C187.37 42.12 186.793 41.8933 186.34 41.44C185.893 40.9867 185.67 40.4 185.67 39.68C185.67 38.9467 185.9 38.3467 186.36 37.88C186.82 37.4133 187.396 37.18 188.09 37.18C188.743 37.18 189.276 37.3933 189.69 37.82C190.11 38.24 190.32 38.7933 190.32 39.48ZM188.09 37.91C187.71 37.91 187.386 38.02 187.12 38.24C186.86 38.46 186.69 38.77 186.61 39.17H189.43C189.376 38.7567 189.23 38.4433 188.99 38.23C188.756 38.0167 188.456 37.91 188.09 37.91ZM193.595 41.37C193.762 41.37 193.912 41.3567 194.045 41.33V42.05C193.872 42.0967 193.662 42.12 193.415 42.12C192.862 42.12 192.452 41.9833 192.185 41.71C191.925 41.4367 191.795 40.9867 191.795 40.36V38.05H190.935V37.3H191.795V36.11H192.675V37.3H194.005V38.05H192.675V40.36C192.675 40.7467 192.742 41.0133 192.875 41.16C193.015 41.3 193.255 41.37 193.595 41.37ZM196.029 36.29C195.915 36.4033 195.775 36.46 195.609 36.46C195.442 36.46 195.299 36.4033 195.179 36.29C195.065 36.17 195.009 36.0267 195.009 35.86C195.009 35.6933 195.065 35.5533 195.179 35.44C195.299 35.32 195.442 35.26 195.609 35.26C195.775 35.26 195.915 35.32 196.029 35.44C196.149 35.5533 196.209 35.6933 196.209 35.86C196.209 36.0267 196.149 36.17 196.029 36.29ZM195.169 42V37.3H196.049V42H195.169ZM200.02 37.18C200.54 37.18 200.954 37.3433 201.26 37.67C201.567 37.9967 201.72 38.45 201.72 39.03V42H200.84V39.37C200.84 38.8633 200.75 38.5033 200.57 38.29C200.397 38.07 200.134 37.96 199.78 37.96C199.38 37.96 199.064 38.0867 198.83 38.34C198.604 38.5867 198.49 38.9533 198.49 39.44V42H197.61V37.3H198.4L198.46 37.93H198.49C198.81 37.43 199.32 37.18 200.02 37.18ZM206.895 37.3H207.685V42.02C207.685 42.7467 207.468 43.3167 207.035 43.73C206.608 44.15 206.032 44.36 205.305 44.36C204.718 44.36 204.218 44.2233 203.805 43.95C203.398 43.6767 203.142 43.3033 203.035 42.83L203.855 42.61C203.955 42.9167 204.132 43.16 204.385 43.34C204.638 43.52 204.948 43.61 205.315 43.61C205.782 43.61 206.152 43.47 206.425 43.19C206.698 42.9167 206.835 42.54 206.835 42.06V41.31H206.805C206.672 41.53 206.458 41.71 206.165 41.85C205.872 41.9833 205.552 42.05 205.205 42.05C204.565 42.05 204.032 41.8233 203.605 41.37C203.178 40.91 202.965 40.3267 202.965 39.62C202.965 38.9133 203.178 38.33 203.605 37.87C204.038 37.41 204.572 37.18 205.205 37.18C205.552 37.18 205.872 37.25 206.165 37.39C206.458 37.53 206.672 37.71 206.805 37.93H206.835L206.895 37.3ZM206.805 39.97V39.27C206.805 38.9033 206.665 38.59 206.385 38.33C206.112 38.07 205.768 37.94 205.355 37.94C204.915 37.94 204.555 38.0933 204.275 38.4C204.002 38.7067 203.865 39.1133 203.865 39.62C203.865 40.1267 204.002 40.5333 204.275 40.84C204.555 41.1467 204.915 41.3 205.355 41.3C205.768 41.3 206.112 41.17 206.385 40.91C206.665 40.65 206.805 40.3367 206.805 39.97Z" fill="#00AEEF"/>
</svg>
