<svg width="16" height="62" viewBox="0 0 16 62" fill="none" xmlns="http://www.w3.org/2000/svg">
<path d="M7.53003 61.23C11.6887 61.23 15.0599 57.8587 15.0599 53.7C15.0599 49.5413 11.6887 46.17 7.53003 46.17C3.37133 46.17 0 49.5413 0 53.7C0 57.8587 3.37133 61.23 7.53003 61.23Z" fill="#00AEEF"/>
<path d="M7.53003 38.15C11.6887 38.15 15.0599 34.7787 15.0599 30.62C15.0599 26.4613 11.6887 23.09 7.53003 23.09C3.37133 23.09 0 26.4613 0 30.62C0 34.7787 3.37133 38.15 7.53003 38.15Z" fill="#00AEEF"/>
<path d="M7.53003 15.06C11.6887 15.06 15.0599 11.6887 15.0599 7.53C15.0599 3.3713 11.6887 0 7.53003 0C3.37133 0 0 3.3713 0 7.53C0 11.6887 3.37133 15.06 7.53003 15.06Z" fill="#00AEEF"/>
</svg>
