<svg width="51" height="51" viewBox="0 0 51 51" fill="none" xmlns="http://www.w3.org/2000/svg">
<path fill-rule="evenodd" clip-rule="evenodd" d="M12.7197 25.3897C12.7197 22.8775 13.4648 20.4213 14.8607 18.3326C16.2567 16.2439 18.2408 14.6163 20.562 13.6554C22.8832 12.6944 25.4372 12.4433 27.901 12.9342C30.3648 13.425 32.6278 14.6356 34.4035 16.4127C36.1792 18.1898 37.388 20.4538 37.8769 22.9181C38.3658 25.3823 38.1129 27.936 37.1501 30.2564C36.1873 32.5769 34.558 34.5599 32.4681 35.9542C30.3783 37.3485 27.922 38.0914 25.4097 38.0894C23.7424 38.0894 22.0914 37.761 20.5512 37.1226C19.0109 36.4843 17.6115 35.5487 16.433 34.3692C15.2545 33.1898 14.3199 31.7899 13.6828 30.2491C13.0457 28.7083 12.7184 27.0571 12.7197 25.3897ZM25.4097 17.7794C23.9022 17.7794 22.4286 18.2268 21.1752 19.0645C19.9219 19.9023 18.9452 21.093 18.3688 22.4859C17.7923 23.8789 17.642 25.4113 17.9368 26.8897C18.2317 28.3681 18.9584 29.7258 20.0251 30.7911C21.0918 31.8564 22.4505 32.5817 23.9293 32.8746C25.4081 33.1675 26.9405 33.0149 28.3327 32.4366C29.7249 31.8583 30.9143 30.88 31.7504 29.6256C32.5865 28.3712 33.0317 26.8973 33.0297 25.3897C33.0271 23.3705 32.2231 21.4348 30.7943 20.0079C29.3656 18.581 27.429 17.7794 25.4097 17.7794Z" fill="white"/>
<path d="M38.1098 15.2402C38.6122 15.2402 39.1033 15.0911 39.521 14.812C39.9387 14.5329 40.2642 14.136 40.4565 13.6719C40.6487 13.2077 40.699 12.6973 40.601 12.2046C40.503 11.7119 40.2611 11.259 39.9059 10.9038C39.5507 10.5486 39.0981 10.307 38.6053 10.209C38.1126 10.111 37.6019 10.1612 37.1378 10.3535C36.6737 10.5457 36.277 10.8713 35.9979 11.289C35.7188 11.7067 35.5698 12.1978 35.5698 12.7002C35.5698 13.3738 35.8374 14.0197 36.3138 14.4961C36.7901 14.9724 37.4362 15.2402 38.1098 15.2402Z" fill="white"/>
<path fill-rule="evenodd" clip-rule="evenodd" d="M18.7 1.65528e-10H32.12C34.87 1.65528e-10 37.12 -9.76622e-05 38.89 0.149902C40.6231 0.223137 42.3236 0.6451 43.89 1.39014C46.2788 2.60884 48.2213 4.55115 49.44 6.93994C50.177 8.50874 50.5951 10.2083 50.67 11.9399C50.82 13.7299 50.82 15.9402 50.82 18.7002V32.1201C50.82 34.8801 50.82 37.1201 50.67 38.8901C50.5951 40.6218 50.177 42.3213 49.44 43.8901C48.2213 46.2789 46.2788 48.2212 43.89 49.4399C42.3236 50.185 40.6231 50.6069 38.89 50.6802C37.09 50.8202 34.89 50.8198 32.12 50.8198H18.7C15.95 50.8198 13.7 50.8202 11.93 50.6802C10.1973 50.6045 8.49726 50.1827 6.92999 49.4399C4.5412 48.2212 2.59871 46.2789 1.38 43.8901C0.643017 42.3213 0.224949 40.6218 0.150024 38.8901C2.44081e-05 37.1001 0 34.8901 0 32.1201V18.7002C0 15.9502 2.44081e-05 13.6999 0.150024 11.9399C0.224949 10.2083 0.643017 8.50874 1.38 6.93994C2.59871 4.55115 4.5412 2.60884 6.92999 1.39014C8.49726 0.647413 10.1973 0.225569 11.93 0.149902C13.73 -9.76622e-05 15.95 1.65528e-10 18.7 1.65528e-10ZM12.35 5.20996C11.2843 5.2402 10.2347 5.47817 9.26001 5.91016C7.82543 6.63958 6.65941 7.80565 5.92999 9.24023C5.49299 10.2133 5.25498 11.2637 5.22998 12.3301C5.09998 13.9001 5.09998 15.91 5.09998 18.79V32C5.09998 34.88 5.09998 36.89 5.22998 38.46C5.25498 39.5263 5.49299 40.5768 5.92999 41.5498C6.65941 42.9844 7.82543 44.1505 9.26001 44.8799C10.2347 45.3119 11.2843 45.5498 12.35 45.5801C13.91 45.7001 15.92 45.71 18.81 45.71H32.01C34.9 45.71 36.91 45.7101 38.48 45.5801C39.5425 45.5501 40.5889 45.3121 41.56 44.8799C42.9946 44.1505 44.1606 42.9844 44.89 41.5498C45.327 40.5768 45.565 39.5263 45.59 38.46C45.72 36.89 45.72 34.88 45.72 32V18.79C45.72 15.91 45.72 13.9001 45.59 12.3301C45.565 11.2637 45.327 10.2133 44.89 9.24023C44.1606 7.80565 42.9946 6.63958 41.56 5.91016C40.5889 5.47796 39.5425 5.23996 38.48 5.20996C36.91 5.07996 34.9 5.08008 32.01 5.08008H18.81C15.92 5.08008 13.91 5.07996 12.35 5.20996Z" fill="white"/>
</svg>
