<svg width="51" height="51" viewBox="0 0 51 51" fill="none" xmlns="http://www.w3.org/2000/svg">
<path d="M6.12 8.18599e-06C4.91113 -0.00197032 3.72876 0.354739 2.72266 1.02491C1.71656 1.69508 0.931884 2.64838 0.467899 3.76466C0.00391328 4.88094 -0.118411 6.11002 0.116214 7.29591C0.350839 8.48179 0.931914 9.57127 1.78601 10.4268C2.64011 11.2823 3.72881 11.8655 4.91431 12.1021C6.09981 12.3386 7.32876 12.218 8.4458 11.7559C9.56284 11.2937 10.5178 10.5104 11.1896 9.50538C11.8614 8.50038 12.22 7.31874 12.22 6.10987C12.2213 5.30797 12.0645 4.51371 11.7585 3.77247C11.4526 3.03123 11.0035 2.35754 10.4369 1.79005C9.87032 1.22255 9.19741 0.772519 8.45667 0.46534C7.71593 0.158161 6.9219 7.10845e-06 6.12 8.18599e-06Z" fill="white"/>
<path d="M11.3799 16.8604H0.839844V50.7705H11.3599L11.3799 16.8604Z" fill="white"/>
<path d="M38.1799 16.0104C36.1715 15.9229 34.1774 16.3876 32.4144 17.3537C30.6514 18.3198 29.1869 19.7504 28.1799 21.4904H28.0399V16.8605H17.9399V50.7707H28.46V33.9904C28.46 29.5704 29.2999 25.2907 34.7799 25.2907C40.2599 25.2907 40.24 30.3507 40.24 34.2907V50.7805H50.84V32.1809C50.84 23.0409 48.8399 16.0104 38.1799 16.0104Z" fill="white"/>
</svg>
